<svg xmlns="http://www.w3.org/2000/svg" viewBox="0 0 32 32" fill="none">
  <rect width="32" height="32" rx="8" fill="#0F2016"/>
  <rect x="0.5" y="0.5" width="31" height="31" rx="7.5" stroke="rgba(255,255,255,0.06)" stroke-width="1"/>
  <!-- Circle -->
  <circle cx="16" cy="15" r="12" stroke="#5A9070" stroke-width="1.5"/>
  <!-- Back leaves -->
  <path d="M11,23 C9,18 10,11 12.5,7 C13.5,11 13,18 11,23Z" fill="#7E91AC" opacity="0.6"/>
  <path d="M21,23 C23,18 22,11 19.5,7 C18.5,11 19,18 21,23Z" fill="#7E91AC" opacity="0.6"/>
  <!-- Side leaves -->
  <path d="M12.5,22 C10.5,17 11,9 14,5 C15,9 14.5,17 12.5,22Z" fill="#6B9E72"/>
  <path d="M19.5,22 C21.5,17 21,9 18,5 C17,9 17.5,17 19.5,22Z" fill="#5A8A62"/>
  <!-- Central leaf -->
  <path d="M16,4 C19.5,7 20,12.5 19.5,16.5 C19,19 17.5,21 16,21.5 C14.5,21 13,19 12.5,16.5 C12,12.5 12.5,7 16,4Z" fill="#4D7C62"/>
  <!-- Brain simplified -->
  <path d="M14,10 C13,9 12.5,11 13.5,12.5 C12.5,13 12,14.5 13.5,15" stroke="rgba(255,255,255,0.55)" stroke-width="0.9" stroke-linecap="round"/>
  <path d="M18,10 C19,9 19.5,11 18.5,12.5 C19.5,13 20,14.5 18.5,15" stroke="rgba(255,255,255,0.55)" stroke-width="0.9" stroke-linecap="round"/>
  <line x1="16" y1="9" x2="16" y2="15" stroke="rgba(255,255,255,0.3)" stroke-width="0.8" stroke-linecap="round"/>
  <!-- Wave -->
  <path d="M8,24.5 Q10.5,22.5 13,24.5 Q15.5,26.5 18,24.5 Q20.5,22.5 23,24.5" stroke="#5A9070" stroke-width="1.3" stroke-linecap="round"/>
</svg>
